<svg xmlns="http://www.w3.org/2000/svg" viewBox="0 0 256 256" style="enable-background:new 0 0 256 256" xml:space="preserve"><style>.st2{fill:none;stroke:#6b1d1d;stroke-width:.5;stroke-miterlimit:10}.st3{fill:#3a312a}.st4{fill:#87796f}.st8{fill:#f16c7a}.st14{fill:#d7e057}.st19{fill:#fae6ca}</style><g id="Layer_1"><path class="st14" d="M204.579 16.543s2.411 8.954 9.352 9.37c0 0-9.266 3.201-9.422 10.045 0 0-1.824-9.6-9.142-9.944 0 0 8.524-1.292 9.212-9.471z"/><path class="st3" d="M204.508 37.458a1.5 1.5 0 0 1-1.472-1.22c-.016-.082-1.704-8.442-7.739-8.726a1.5 1.5 0 0 1-.155-2.981c.296-.047 7.364-1.243 7.942-8.114a1.5 1.5 0 0 1 2.942-.266c.021.079 2.228 7.92 7.994 8.265a1.5 1.5 0 0 1 .4 2.915c-.081.028-8.282 2.952-8.412 8.662a1.501 1.501 0 0 1-1.5 1.465zm-4.519-11.528c2.107 1.332 3.523 3.394 4.447 5.28 1.376-2.232 3.515-3.872 5.365-4.972-2.287-1.27-3.884-3.35-4.941-5.224-1.174 2.286-3.015 3.875-4.871 4.916z"/><path class="st4" d="M16.5 106.942V208c0 17.397 14.103 31.5 31.5 31.5h160c17.397 0 31.5-14.103 31.5-31.5v-97c0-17.397-14.103-31.5-31.5-31.5h-35c-17.397 0-31.5-14.103-31.5-31.5S127.397 16.5 110 16.5H48c-17.397 0-31.5 14.103-31.5 31.5v58.942z"/><path class="st3" d="M208 241H48c-18.196 0-33-14.804-33-33V106.942a1.5 1.5 0 1 1 3 0V208c0 16.542 13.458 30 30 30h160c16.542 0 30-13.458 30-30v-97c0-16.542-13.458-30-30-30h-35c-18.196 0-33-14.804-33-33 0-16.542-13.458-30-30-30H48c-16.542 0-30 13.458-30 30v45.725a1.5 1.5 0 1 1-3 0V48c0-18.196 14.804-33 33-33h62c18.196 0 33 14.804 33 33 0 16.542 13.458 30 30 30h35c18.196 0 33 14.804 33 33v97c0 18.196-14.804 33-33 33z"/><path class="st19" d="M40.042 175.528h15.905v38.111H40.042z"/><path class="st3" d="M55.947 215.139H40.041a1.5 1.5 0 0 1-1.5-1.5v-38.111a1.5 1.5 0 0 1 1.5-1.5h15.905a1.5 1.5 0 0 1 1.5 1.5v38.111c.001.829-.671 1.5-1.499 1.5zm-14.406-3h12.905v-35.111H41.541v35.111z"/><path class="st19" d="M55.947 175.528h15.905v38.111H55.947z"/><path class="st3" d="M71.852 215.139H55.947a1.5 1.5 0 0 1-1.5-1.5v-38.111a1.5 1.5 0 0 1 1.5-1.5h15.905a1.5 1.5 0 0 1 1.5 1.5v38.111a1.5 1.5 0 0 1-1.5 1.5zm-14.405-3h12.905v-35.111H57.447v35.111z"/><path class="st19" d="M71.852 175.528h15.905v38.111H71.852z"/><path class="st3" d="M87.758 215.139H71.852a1.5 1.5 0 0 1-1.5-1.5v-38.111a1.5 1.5 0 0 1 1.5-1.5h15.906a1.5 1.5 0 0 1 1.5 1.5v38.111a1.5 1.5 0 0 1-1.5 1.5zm-14.406-3h12.906v-35.111H73.352v35.111z"/><path class="st19" d="M87.758 175.528h15.905v38.111H87.758z"/><path class="st3" d="M103.663 215.139H87.758a1.5 1.5 0 0 1-1.5-1.5v-38.111a1.5 1.5 0 0 1 1.5-1.5h15.905a1.5 1.5 0 0 1 1.5 1.5v38.111a1.5 1.5 0 0 1-1.5 1.5zm-14.405-3h12.905v-35.111H89.258v35.111z"/><path class="st19" d="M103.663 175.528h15.905v38.111h-15.905z"/><path class="st3" d="M119.568 215.139h-15.905a1.5 1.5 0 0 1-1.5-1.5v-38.111a1.5 1.5 0 0 1 1.5-1.5h15.905a1.5 1.5 0 0 1 1.5 1.5v38.111a1.5 1.5 0 0 1-1.5 1.5zm-14.405-3h12.905v-35.111h-12.905v35.111z"/><path class="st19" d="M119.568 175.528h15.905v38.111h-15.905z"/><path class="st3" d="M135.474 215.139h-15.905a1.5 1.5 0 0 1-1.5-1.5v-38.111a1.5 1.5 0 0 1 1.5-1.5h15.905a1.5 1.5 0 0 1 1.5 1.5v38.111a1.5 1.5 0 0 1-1.5 1.5zm-14.406-3h12.905v-35.111h-12.905v35.111z"/><path class="st19" d="M135.473 175.528h15.905v38.111h-15.905z"/><path class="st3" d="M151.379 215.139h-15.905a1.5 1.5 0 0 1-1.5-1.5v-38.111a1.5 1.5 0 0 1 1.5-1.5h15.905a1.5 1.5 0 0 1 1.5 1.5v38.111a1.5 1.5 0 0 1-1.5 1.5zm-14.405-3h12.905v-35.111h-12.905v35.111z"/><path class="st19" d="M151.379 175.528h15.905v38.111h-15.905z"/><path class="st3" d="M167.284 215.139h-15.905a1.5 1.5 0 0 1-1.5-1.5v-38.111a1.5 1.5 0 0 1 1.5-1.5h15.905a1.5 1.5 0 0 1 1.5 1.5v38.111a1.5 1.5 0 0 1-1.5 1.5zm-14.405-3h12.905v-35.111h-12.905v35.111z"/><path class="st19" d="M167.284 175.528h15.905v38.111h-15.905z"/><path class="st3" d="M183.189 215.139h-15.905a1.5 1.5 0 0 1-1.5-1.5v-38.111a1.5 1.5 0 0 1 1.5-1.5h15.905a1.5 1.5 0 0 1 1.5 1.5v38.111a1.5 1.5 0 0 1-1.5 1.5zm-14.405-3h12.905v-35.111h-12.905v35.111z"/><path class="st19" d="M183.189 175.528h15.905v38.111h-15.905z"/><path class="st3" d="M199.095 215.139H183.19a1.5 1.5 0 0 1-1.5-1.5v-38.111a1.5 1.5 0 0 1 1.5-1.5h15.905a1.5 1.5 0 0 1 1.5 1.5v38.111a1.5 1.5 0 0 1-1.5 1.5zm-14.406-3h12.905v-35.111h-12.905v35.111z"/><path class="st19" d="M199.095 175.528H215v38.111h-15.905z"/><path class="st3" d="M215 215.139h-15.905a1.5 1.5 0 0 1-1.5-1.5v-38.111a1.5 1.5 0 0 1 1.5-1.5H215a1.5 1.5 0 0 1 1.5 1.5v38.111a1.5 1.5 0 0 1-1.5 1.5zm-14.405-3H213.5v-35.111h-12.905v35.111z"/><path class="st4" d="M50.935 175.528h10.033v20.914H50.935z"/><path class="st3" d="M60.968 197.942H50.935a1.5 1.5 0 0 1-1.5-1.5v-20.914a1.5 1.5 0 0 1 1.5-1.5h10.033a1.5 1.5 0 0 1 1.5 1.5v20.914a1.5 1.5 0 0 1-1.5 1.5zm-8.533-3h7.033v-17.914h-7.033v17.914z"/><path class="st4" d="M66.827 175.528H76.86v20.914H66.827z"/><path class="st3" d="M76.86 197.942H66.827a1.5 1.5 0 0 1-1.5-1.5v-20.914a1.5 1.5 0 0 1 1.5-1.5H76.86a1.5 1.5 0 0 1 1.5 1.5v20.914a1.5 1.5 0 0 1-1.5 1.5zm-8.533-3h7.033v-17.914h-7.033v17.914z"/><path class="st4" d="M82.718 175.528h10.033v20.914H82.718z"/><path class="st3" d="M92.751 197.942H82.718a1.5 1.5 0 0 1-1.5-1.5v-20.914a1.5 1.5 0 0 1 1.5-1.5h10.033a1.5 1.5 0 0 1 1.5 1.5v20.914a1.5 1.5 0 0 1-1.5 1.5zm-8.533-3h7.033v-17.914h-7.033v17.914z"/><path class="st4" d="M114.501 175.528h10.033v20.914h-10.033z"/><path class="st3" d="M124.535 197.942h-10.033a1.5 1.5 0 0 1-1.5-1.5v-20.914a1.5 1.5 0 0 1 1.5-1.5h10.033a1.5 1.5 0 0 1 1.5 1.5v20.914a1.5 1.5 0 0 1-1.5 1.5zm-8.534-3h7.033v-17.914h-7.033v17.914z"/><path class="st4" d="M130.393 175.528h10.033v20.914h-10.033z"/><path class="st3" d="M140.426 197.942h-10.033a1.5 1.5 0 0 1-1.5-1.5v-20.914a1.5 1.5 0 0 1 1.5-1.5h10.033a1.5 1.5 0 0 1 1.5 1.5v20.914a1.5 1.5 0 0 1-1.5 1.5zm-8.533-3h7.033v-17.914h-7.033v17.914z"/><path class="st4" d="M162.176 175.528h10.033v20.914h-10.033z"/><path class="st3" d="M172.209 197.942h-10.034a1.5 1.5 0 0 1-1.5-1.5v-20.914a1.5 1.5 0 0 1 1.5-1.5h10.034a1.5 1.5 0 0 1 1.5 1.5v20.914a1.5 1.5 0 0 1-1.5 1.5zm-8.533-3h7.034v-17.914h-7.034v17.914z"/><path class="st4" d="M178.068 175.528h10.033v20.914h-10.033z"/><path class="st3" d="M188.101 197.942h-10.034a1.5 1.5 0 0 1-1.5-1.5v-20.914a1.5 1.5 0 0 1 1.5-1.5h10.034a1.5 1.5 0 0 1 1.5 1.5v20.914a1.5 1.5 0 0 1-1.5 1.5zm-8.534-3h7.034v-17.914h-7.034v17.914z"/><path class="st4" d="M193.959 175.528h10.033v20.914h-10.033z"/><path class="st3" d="M203.993 197.942h-10.034a1.5 1.5 0 0 1-1.5-1.5v-20.914a1.5 1.5 0 0 1 1.5-1.5h10.034a1.5 1.5 0 0 1 1.5 1.5v20.914a1.5 1.5 0 0 1-1.5 1.5zm-8.534-3h7.034v-17.914h-7.034v17.914z"/><path class="st14" d="M226.278 26.22s3.408 12.659 13.222 13.246c0 0-13.1 4.525-13.321 14.202 0 0-2.578-13.572-12.925-14.059 0 0 12.05-1.825 13.024-13.389z"/><path class="st3" d="M226.178 55.167a1.5 1.5 0 0 1-1.472-1.217c-.024-.124-2.495-12.417-11.522-12.842a1.5 1.5 0 0 1-.155-2.982c.441-.069 10.895-1.817 11.755-12.033a1.5 1.5 0 0 1 2.942-.266c.032.116 3.259 11.626 11.864 12.141a1.501 1.501 0 0 1 .402 2.915c-.121.042-12.118 4.311-12.313 12.819a1.5 1.5 0 0 1-1.501 1.465zm-7.742-15.729c3.878 1.969 6.231 5.746 7.587 8.877 2.027-4.021 5.942-6.787 8.949-8.427-4.135-1.842-6.783-5.651-8.334-8.723-1.792 4.36-5.271 6.869-8.202 8.273z"/><path class="st14" d="M204.579 43.2s2.411 8.954 9.352 9.369c0 0-9.266 3.201-9.422 10.045 0 0-1.824-9.6-9.142-9.944 0 .001 8.524-1.29 9.212-9.47z"/><path class="st3" d="M204.508 64.115a1.5 1.5 0 0 1-1.472-1.22c-.016-.082-1.704-8.442-7.739-8.726a1.5 1.5 0 0 1-.155-2.982c.296-.047 7.364-1.243 7.942-8.114a1.5 1.5 0 0 1 2.942-.267c.021.079 2.228 7.92 7.994 8.265a1.5 1.5 0 0 1 .4 2.915c-.081.028-8.282 2.952-8.412 8.662a1.501 1.501 0 0 1-1.5 1.467zm-4.519-11.528c2.107 1.333 3.523 3.395 4.447 5.28 1.376-2.232 3.515-3.872 5.365-4.972-2.287-1.27-3.884-3.35-4.941-5.224-1.174 2.287-3.015 3.875-4.871 4.916z"/><path class="st8" d="M172.551 130.711v-30.345a58.205 58.205 0 0 0-44.55 0v59.698a58.205 58.205 0 0 1 44.55 0v-29.353z"/><path class="st3" d="M172.551 161.564a1.51 1.51 0 0 1-.574-.114c-13.994-5.796-29.407-5.795-43.402 0a1.501 1.501 0 0 1-2.075-1.386v-59.698c0-.607.365-1.154.926-1.386 14.734-6.104 30.963-6.104 45.699 0a1.5 1.5 0 0 1 .926 1.386v30.345a1.5 1.5 0 1 1-3 0v-29.333c-13.436-5.298-28.115-5.297-41.55 0v56.485c13.48-5.016 28.072-5.016 41.55 0v-13.908a1.5 1.5 0 1 1 3 0v16.109a1.498 1.498 0 0 1-1.5 1.5z"/><path class="st8" d="M127.999 100.366a58.205 58.205 0 0 0-44.55 0v59.698a58.205 58.205 0 0 1 44.55 0v-59.698z"/><path class="st3" d="M83.449 161.564a1.496 1.496 0 0 1-1.5-1.5v-59.698c0-.607.365-1.154.926-1.386 14.735-6.104 30.964-6.103 45.699 0 .561.232.926.779.926 1.386v59.698a1.498 1.498 0 0 1-2.075 1.386c-13.994-5.797-29.409-5.797-43.402 0a1.488 1.488 0 0 1-.574.114zm22.275-7.463a59.489 59.489 0 0 1 20.775 3.762v-56.485c-13.436-5.296-28.114-5.297-41.55 0v56.485a59.489 59.489 0 0 1 20.775-3.762z"/><path class="st14" d="M107.991 132.051c1.28 3.545-1.222 8.551-5.59 11.181-4.368 2.63-8.946 1.889-10.227-1.656-1.28-3.545 1.222-8.551 5.59-11.182 4.368-2.629 8.946-1.887 10.227 1.657z"/><path class="st3" d="M97.247 146.311a7.922 7.922 0 0 1-2.652-.439c-1.822-.646-3.183-1.991-3.831-3.785-1.535-4.249 1.2-9.949 6.226-12.977 2.921-1.759 6.049-2.252 8.58-1.354 1.822.646 3.183 1.991 3.831 3.785 1.535 4.249-1.2 9.949-6.227 12.977-1.963 1.183-4.021 1.793-5.927 1.793zm5.683-15.991c-1.364 0-2.911.469-4.392 1.361-3.714 2.237-5.983 6.536-4.953 9.387.348.961 1.025 1.627 2.013 1.978 1.659.588 3.912.179 6.029-1.097 3.714-2.237 5.983-6.536 4.953-9.387-.348-.961-1.025-1.627-2.013-1.978a4.888 4.888 0 0 0-1.637-.264z"/><path class="st3" d="M108.31 135.739a1.5 1.5 0 0 1-1.5-1.5v-25.111a1.5 1.5 0 0 1 2.798-.753c.161.273 4.053 6.732 10.815 5.09a1.5 1.5 0 0 1 .706 2.916c-4.812 1.162-8.731-.804-11.318-3.132v20.99a1.501 1.501 0 0 1-1.501 1.5z"/><ellipse transform="rotate(-42.471 144.647 136.822)" class="st14" cx="144.634" cy="136.814" rx="9.422" ry="6.559"/><path class="st3" d="M141.797 146.311a7.917 7.917 0 0 1-2.652-.439c-1.822-.647-3.182-1.991-3.83-3.785-1.535-4.249 1.2-9.949 6.227-12.977 2.92-1.76 6.047-2.252 8.58-1.354 1.822.646 3.183 1.991 3.83 3.785 1.535 4.249-1.2 9.949-6.226 12.977-1.964 1.183-4.021 1.793-5.929 1.793zm5.684-15.991c-1.364 0-2.911.469-4.392 1.361-3.714 2.237-5.983 6.536-4.953 9.387.347.961 1.024 1.626 2.012 1.978 1.659.588 3.913.179 6.03-1.097 3.714-2.237 5.982-6.536 4.953-9.387-.347-.961-1.025-1.627-2.013-1.978a4.888 4.888 0 0 0-1.637-.264z"/><path class="st3" d="M152.861 135.739a1.5 1.5 0 0 1-1.5-1.5v-25.111a1.5 1.5 0 0 1 2.797-.753c.16.273 4.05 6.732 10.816 5.09a1.5 1.5 0 1 1 .706 2.916c-4.808 1.164-8.73-.804-11.319-3.133v20.991a1.5 1.5 0 0 1-1.5 1.5z"/><path d="M208 81h-15c16.54 0 30 13.46 30 30v97c0 16.54-13.46 30-30 30h15c16.54 0 30-13.46 30-30v-97c0-16.54-13.46-30-30-30z" style="fill:#695b51"/></g></svg>