<svg id='Music_Folder_24' width='24' height='24' viewBox='0 0 24 24' xmlns='http://www.w3.org/2000/svg' xmlns:xlink='http://www.w3.org/1999/xlink'><rect width='24' height='24' stroke='none' fill='#000000' opacity='0'/>


<g transform="matrix(0.77 0 0 0.77 12 12)" >
<path style="stroke: none; stroke-width: 1; stroke-dasharray: none; stroke-linecap: butt; stroke-dashoffset: 0; stroke-linejoin: miter; stroke-miterlimit: 4; fill: rgb(0,0,0); fill-rule: nonzero; opacity: 1;" transform=" translate(-15, -14)" d="M 4 3 C 2.895 3 2 3.895 2 5 L 2 8 L 2 23 C 2 24.105 2.895 25 4 25 L 26 25 C 27.105 25 28 24.105 28 23 L 28 7 C 28 5.895 27.105 5 26 5 L 11.199219 5 L 10.582031 3.9707031 C 10.221031 3.3687031 9.5701875 3 8.8671875 3 L 4 3 z M 19.279297 9.0039062 C 19.663297 8.9619063 20 9.2633906 20 9.6503906 L 20 18.099609 C 20 18.948609 19.315953 20 17.751953 20 C 16.354953 20 16.001953 19.105 16.001953 18.5 C 16.001953 17.757 16.450906 16.996094 17.753906 16.996094 C 18.933906 16.996094 19.001953 16.696563 19.001953 16.101562 L 19.001953 12.033203 L 12.001953 12.8125 L 12.001953 19.097656 C 12.000953 19.947656 11.315953 21 9.7519531 21 C 8.3549531 21 8.0019531 20.105 8.0019531 19.5 C 8.0019531 18.757 8.4509063 17.996094 9.7539062 17.996094 C 10.933906 17.996094 11.001953 17.696563 11.001953 17.101562 L 11.001953 10.505859 C 11.001953 10.174859 11.249125 9.896375 11.578125 9.859375 L 19.279297 9.0039062 z" stroke-linecap="round" />
</g>
</svg>