<svg xmlns="http://www.w3.org/2000/svg" xml:space="preserve" width="2048" height="2048" style="shape-rendering:geometricPrecision;text-rendering:geometricPrecision;image-rendering:optimizeQuality;fill-rule:evenodd;clip-rule:evenodd"><path style="fill:#a3a3a3" d="M255.999 1512.31h255.999v256H255.999z"/><path style="fill:#afafaf" d="M255.999 1256.31h255.999v256H255.999z"/><path style="fill:#bfc0c0" d="M255.999 1000.31h255.999v256H255.999z"/><path style="fill:#dadada" d="M255.999 744.308h255.999v256H255.999z"/><path style="fill:#818181" d="M640.001 1256.31H896v256H640.001z"/><path style="fill:#909090" d="M640.001 1000.31H896v256H640.001z"/><path style="fill:#9a9b9b" d="M640.001 744.308H896v256H640.001z"/><path style="fill:#b0b0b0" d="M640.001 488.307H896v256H640.001z"/><path style="fill:#797979" d="M640.001 1512.31H896v256H640.001z"/><g><path style="fill:#949494" d="M1024 1563.49h255.999v204.818H1024z"/><path style="fill:#a9a9a9" d="M1024 1358.67h255.999v204.818H1024z"/><path style="fill:#bababb" d="M1024 1153.86h255.999v204.818H1024z"/><path style="fill:#d0d0d1" d="M1024 949.038h255.999v204.818H1024z"/></g><g><path style="fill:#7c7c7c" d="M1400.52 1163.39h255.999v302.462H1400.52z"/><path style="fill:#8c8d8d" d="M1400.52 860.923h255.999v302.462H1400.52z"/><path style="fill:#9b9b9c" d="M1400.52 558.461h255.999v302.462H1400.52z"/><path style="fill:#acadad" d="M1400.52 255.998h255.999V558.46H1400.52z"/><path style="fill:#686868" d="M1400.52 1465.85h255.999v302.462H1400.52z"/></g><path style="fill:none" d="M0 0h2048v2048H0z"/></svg>