<svg xmlns="http://www.w3.org/2000/svg" viewBox="0 0 120 120" style="enable-background:new 0 0 120 120" xml:space="preserve"><switch><g><path d="M52.6 105.3c-14.1 0-27.3-5.5-37.2-15.4-20.5-20.5-20.5-53.9 0-74.5C25.3 5.5 38.6 0 52.6 0c14.1 0 27.3 5.5 37.2 15.4 9.9 9.9 15.4 23.2 15.4 37.2s-5.5 27.3-15.4 37.2c-9.9 10-23.1 15.5-37.2 15.5zm0-100.4c-12.7 0-24.7 5-33.7 14C.3 37.5.3 67.8 18.9 86.4s48.9 18.6 67.5 0 18.6-48.9 0-67.5c-9.1-9-21-14-33.8-14z"/><path d="M52.6 92.6c-10.7 0-20.7-4.2-28.3-11.7C8.8 65.3 8.8 40 24.4 24.4c7.5-7.6 17.6-11.7 28.3-11.7S73.4 16.9 81 24.4C88.6 32 92.7 42 92.7 52.7S88.5 73.4 81 81c-7.7 7.5-17.7 11.6-28.4 11.6zm0-75c-9.4 0-18.2 3.6-24.8 10.3-13.7 13.7-13.7 35.9 0 49.5 6.6 6.6 15.4 10.3 24.8 10.3s18.2-3.6 24.8-10.3C84 70.8 87.7 62 87.7 52.6S84 34.5 77.4 27.9C70.8 21.3 62 17.6 52.6 17.6zM107 120 79.9 92.9l13-13L120 107l-13 13zM86.9 92.9 107 113l6-6-20.2-20.1-5.9 6z"/><g><path d="m86.336 95.874 9.483-9.467 3.462 3.468-9.483 9.467z"/></g></g></switch></svg>